# Blender v2.79 (sub 0) OBJ File: 'lowpolypalmtree.blend'
# www.blender.org
o palm_fan_2
v -0.018192 0.009469 -0.123328
v 0.033201 0.421011 -0.152287
v 0.113988 0.000000 -0.039249
v 0.186410 0.434710 -0.079519
v -0.104747 0.003857 0.044155
v -0.097071 0.483848 -0.001812
v 0.039249 0.000000 0.113988
v 0.089715 0.500972 0.098594
v -0.071359 0.294643 -0.247374
v 0.248422 0.290787 -0.091804
v 0.088510 0.321444 0.236062
v -0.249753 0.317587 0.070682
v -0.342197 1.988011 0.709177
v -0.776715 2.453749 -0.393083
v 0.182803 1.354501 0.059461
v 0.083143 1.378708 -0.255925
v -0.264518 1.912964 -0.329764
v -0.017463 1.715677 0.289502
v 0.194984 0.949492 -0.030338
v 0.183362 0.942573 -0.150678
v 0.063465 0.541581 -0.032328
v -0.292849 0.682071 0.391959
v -0.476483 0.670987 0.044573
v 0.081905 0.772858 0.092874
v 0.041098 0.750139 -0.009213
v -0.208315 0.810119 0.023019
v -0.053879 0.793403 0.270433
v 0.047964 -0.080118 -0.017376
v 0.066279 0.227188 -0.446940
v -0.429454 0.120428 -0.290094
v -0.062159 0.638122 -0.308125
v 0.227152 0.724879 -0.031663
v -0.245211 0.694207 -0.055889
v -0.027717 0.709448 0.174174
vt 1.001420 0.148482
vt 0.831400 0.148482
vt 0.860044 -0.000030
vt 0.928686 -0.000030
vt 0.481690 0.148482
vt 0.310926 0.148482
vt 0.354259 -0.000030
vt 0.433959 -0.000030
vt 0.656859 0.148482
vt 0.485717 0.148482
vt 0.531436 -0.000030
vt 0.611143 -0.000030
vt 0.828510 0.148482
vt 0.657372 0.148482
vt 0.685519 -0.000030
vt 0.773865 -0.000030
vt 0.773773 0.241704
vt 0.676197 0.241704
vt 0.629505 0.254118
vt 0.530127 0.249978
vt 0.462992 0.219529
vt 0.367755 0.248972
vt 0.940836 0.199410
vt 0.862705 0.214385
vt 0.261118 0.510938
vt 0.000005 0.672597
vt 0.000005 0.999760
vt 0.460403 0.679543
vt 0.140069 0.343150
vt 0.000005 0.391760
vt 0.059110 0.180551
vt 0.000005 0.190598
vt 0.595981 0.792136
vt 0.798447 0.811419
vt 0.874353 0.999079
vt 0.602369 0.999716
vt 0.000005 0.000240
vt 0.634451 0.643062
vt 0.727584 0.643404
vt 0.873380 0.713426
vt 0.771113 0.728700
vt 0.814538 0.668447
vt 0.873510 0.625897
vt 0.770885 0.625897
vt 0.587878 0.999267
vt 0.298576 0.999267
vt 0.410767 0.733974
vt 0.463821 0.316022
vt 0.446652 0.429200
vt 0.282754 0.429200
vt 0.318688 0.316022
vt 0.616127 0.266029
vt 0.621512 0.429200
vt 0.482862 0.324320
vt 0.814792 0.294307
vt 0.839842 0.429200
vt 0.699146 0.284260
vt 0.984842 0.429200
vt 0.839842 0.429200
vt 0.830423 0.298278
vt 0.991861 0.298278
vt 0.691637 0.490045
s 1
f 9/1 10/2 3/3 1/4
f 10/5 11/6 7/7 3/8
f 11/9 12/10 5/11 7/12
f 12/13 9/14 1/15 5/16
f 6/17 2/18 9/14 12/13
f 8/19 6/20 12/10 11/9
f 4/21 8/22 11/6 10/5
f 2/23 4/24 10/2 9/1
f 18/25 17/26 14/27 13/28
f 15/29 16/30 17/26 18/25
f 16/30 15/29 19/31 20/32
f 27/33 26/34 23/35 22/36
f 20/32 19/31 21/37
f 24/38 25/39 26/34 27/33
f 2/40 6/41 21/42
f 4/43 2/40 21/42
f 8/44 4/43 21/42
f 6/41 8/44 21/42
f 30/45 29/46 28/47
f 8/48 34/49 33/50 6/51
f 4/52 32/53 34/49 8/54
f 2/55 31/56 32/53 4/57
f 6/58 2/59 31/60 33/61
f 24/38 21/62 25/39
